<svg width="21" height="21" viewBox="0 0 21 21" fill="none" xmlns="http://www.w3.org/2000/svg">
<path fill-rule="evenodd" clip-rule="evenodd" d="M10.5 1.75C5.66753 1.75 1.75 5.66748 1.75 10.5C1.75 15.3324 5.66753 19.25 10.5 19.25C15.3325 19.25 19.25 15.3325 19.25 10.5C19.25 5.66748 15.3325 1.75 10.5 1.75ZM10.5 17.5C6.64021 17.5 3.50001 14.3598 3.50001 10.5C3.50001 6.64017 6.64017 3.50001 10.5 3.50001C14.3598 3.50001 17.5 6.64017 17.5 10.5C17.5 14.3598 14.3598 17.5 10.5 17.5ZM11.5957 7C11.5957 7.63443 11.1338 8.09376 10.5089 8.09376C9.85875 8.09376 9.40815 7.63439 9.40815 6.98786C9.40815 6.36647 9.87093 5.90628 10.5089 5.90628C11.1338 5.90628 11.5957 6.36647 11.5957 7ZM9.62693 9.625H11.3769V14.875H9.62693V9.625Z" fill="black"/>
</svg>
