<svg width="21" height="21" viewBox="0 0 21 21" fill="none" xmlns="http://www.w3.org/2000/svg">
<path d="M16 16.75H3.75V7.125H16M13.375 1V2.75H6.375V1H4.625V2.75H3.75C2.77875 2.75 2 3.52875 2 4.5V16.75C2 17.2141 2.18437 17.6592 2.51256 17.9874C2.84075 18.3156 3.28587 18.5 3.75 18.5H16C16.4641 18.5 16.9092 18.3156 17.2374 17.9874C17.5656 17.6592 17.75 17.2141 17.75 16.75V4.5C17.75 4.03587 17.5656 3.59075 17.2374 3.26256C16.9092 2.93437 16.4641 2.75 16 2.75H15.125V1M14.25 10.625H9.875V15H14.25V10.625Z" fill="#1E1E1E" fill-opacity="0.5"/>
</svg>
