<svg width="18" height="19" viewBox="0 0 18 19" fill="none" xmlns="http://www.w3.org/2000/svg">
<path d="M17.767 11.4805C17.9196 10.8164 18 10.1445 18 9.47266C18 4.65625 13.9902 0.75 9.03616 0.75C8.3692 0.75 7.69821 0.828125 7.05536 0.964844C12.0134 2.80078 15.9147 6.64844 17.767 11.4805ZM1.9808 4.08984C2.53125 3.40625 3.17411 2.8125 3.90134 2.32031C9.91205 4.05078 14.6009 8.65234 16.3446 14.5078C15.8424 15.2148 15.2196 15.8984 14.5286 16.4219C12.7969 10.5117 8.05179 5.80859 1.9808 4.08984ZM1.34598 13.9609C0.735268 12.9805 0.325447 11.8633 0.160715 10.7266C3.35089 12.4023 5.98661 15.0469 7.69821 18.1602C6.49286 17.9883 5.3317 17.5625 4.29911 16.9375C2.89286 17.4492 1.45045 17.8867 0 18.25C0.373661 16.8242 0.819643 15.3398 1.34598 13.9609ZM0.152678 8.27734C0.257143 7.51562 0.470089 6.76562 0.7875 6.05859C6.32812 7.84766 10.6875 12.1758 12.4915 17.5859C11.7643 17.8828 11.0049 18.0742 10.2174 18.1797C8.35714 13.7227 4.72098 10.1016 0.152678 8.27734Z" fill="#1E1E1E" fill-opacity="0.5"/>
</svg>
