<svg width="40" height="40" viewBox="0 0 40 40" fill="none" xmlns="http://www.w3.org/2000/svg">
<path d="M20.0026 3.33203C10.8026 3.33203 3.33594 10.7987 3.33594 19.9987C3.33594 29.1987 10.8026 36.6654 20.0026 36.6654C29.2026 36.6654 36.6693 29.1987 36.6693 19.9987C36.6693 10.7987 29.2026 3.33203 20.0026 3.33203ZM27.7359 14.6654C27.4859 17.2987 26.4026 23.6987 25.8526 26.6487C25.6193 27.8987 25.1526 28.3154 24.7193 28.3654C23.7526 28.4487 23.0193 27.732 22.0859 27.1154C20.6193 26.1487 19.7859 25.5487 18.3693 24.6154C16.7193 23.532 17.7859 22.932 18.7359 21.9654C18.9859 21.7154 23.2526 17.832 23.3359 17.482C23.3475 17.429 23.346 17.374 23.3314 17.3217C23.3169 17.2694 23.2899 17.2215 23.2526 17.182C23.1526 17.0987 23.0193 17.132 22.9026 17.1487C22.7526 17.182 20.4193 18.732 15.8693 21.7987C15.2026 22.2487 14.6026 22.482 14.0693 22.4654C13.4693 22.4487 12.3359 22.132 11.4859 21.8487C10.4359 21.5154 9.61927 21.332 9.68594 20.7487C9.71927 20.4487 10.1359 20.1487 10.9193 19.832C15.7859 17.7154 19.0193 16.3154 20.6359 15.6487C25.2693 13.7154 26.2193 13.382 26.8526 13.382C26.9859 13.382 27.3026 13.4154 27.5026 13.582C27.6693 13.7154 27.7193 13.8987 27.7359 14.032C27.7193 14.132 27.7526 14.432 27.7359 14.6654Z" fill="black" fill-opacity="0.5"/>
</svg>
