<svg width="18" height="18" viewBox="0 0 18 18" fill="none" xmlns="http://www.w3.org/2000/svg">
<path d="M17.767 11.0977C17.9196 10.4336 18 9.76172 18 9.08984C18 4.27344 13.9902 0.367188 9.03616 0.367188C8.3692 0.367188 7.69821 0.445312 7.05536 0.582031C12.0134 2.41797 15.9147 6.26563 17.767 11.0977ZM1.9808 3.70703C2.53125 3.02344 3.17411 2.42969 3.90134 1.9375C9.91205 3.66797 14.6009 8.26953 16.3446 14.125C15.8424 14.832 15.2196 15.5156 14.5286 16.0391C12.7969 10.1289 8.05179 5.42578 1.9808 3.70703ZM1.34598 13.5781C0.735268 12.5977 0.325447 11.4805 0.160715 10.3438C3.35089 12.0195 5.98661 14.6641 7.69821 17.7773C6.49286 17.6055 5.3317 17.1797 4.29911 16.5547C2.89286 17.0664 1.45045 17.5039 0 17.8672C0.373661 16.4414 0.819643 14.957 1.34598 13.5781ZM0.152678 7.89453C0.257143 7.13281 0.470089 6.38281 0.7875 5.67578C6.32812 7.46484 10.6875 11.793 12.4915 17.2031C11.7643 17.5 11.0049 17.6914 10.2174 17.7969C8.35714 13.3398 4.72098 9.71875 0.152678 7.89453Z" fill="black"/>
</svg>
