<svg width="23" height="17" viewBox="0 0 23 17" fill="none" xmlns="http://www.w3.org/2000/svg">
<path d="M11.5013 5.375C12.3301 5.375 13.125 5.70424 13.711 6.29029C14.2971 6.87634 14.6263 7.6712 14.6263 8.5C14.6263 9.3288 14.2971 10.1237 13.711 10.7097C13.125 11.2958 12.3301 11.625 11.5013 11.625C10.6725 11.625 9.87764 11.2958 9.29159 10.7097C8.70554 10.1237 8.3763 9.3288 8.3763 8.5C8.3763 7.6712 8.70554 6.87634 9.29159 6.29029C9.87764 5.70424 10.6725 5.375 11.5013 5.375ZM11.5013 0.6875C16.7096 0.6875 21.1576 3.92708 22.9596 8.5C21.1576 13.0729 16.7096 16.3125 11.5013 16.3125C6.29297 16.3125 1.84505 13.0729 0.0429688 8.5C1.84505 3.92708 6.29297 0.6875 11.5013 0.6875ZM2.3138 8.5C3.15573 10.2191 4.46308 11.6674 6.08722 12.6805C7.71136 13.6935 9.58713 14.2305 11.5013 14.2305C13.4155 14.2305 15.2912 13.6935 16.9154 12.6805C18.5395 11.6674 19.8469 10.2191 20.6888 8.5C19.8469 6.78093 18.5395 5.33255 16.9154 4.31953C15.2912 3.3065 13.4155 2.76946 11.5013 2.76946C9.58713 2.76946 7.71136 3.3065 6.08722 4.31953C4.46308 5.33255 3.15573 6.78093 2.3138 8.5Z" fill="#1E1E1E" fill-opacity="0.5"/>
</svg>
